<svg xmlns="http://www.w3.org/2000/svg" viewBox="0 0 64 64"><rect width="64" height="64" rx="14" fill="#1d3ec4"/><path transform="translate(2.91 48.35) scale(0.04632 -0.04632)" d="M63 0V721H221V323Q250 344 275.5 368.0Q301 392 322.5 418.0Q344 444 361.5 471.5Q379 499 392 528H576Q563 489 540.0 450.5Q517 412 484.0 379.5Q451 347 405.5 324.0Q360 301 302 293V275Q375 289 421.5 275.5Q468 262 496.0 231.5Q524 201 539.0 161.0Q554 121 564 82L585 0H410L400 49Q390 98 376.5 133.5Q363 169 338.0 188.5Q313 208 266 208H221V0Z" fill="#ffffff"/><path transform="translate(29.64 48.35) scale(0.04632 -0.04632)" d="M397 -14Q347 -14 309.5 5.0Q272 24 248.5 62.0Q225 100 217 156H197L194 0H63V261V720H224V545Q224 521 220.5 494.5Q217 468 211.5 439.0Q206 410 199 378H223Q237 431 260.0 467.0Q283 503 317.5 521.5Q352 540 399 540Q465 540 513.5 506.0Q562 472 589.0 409.5Q616 347 616 260Q616 176 589.5 114.5Q563 53 514.0 19.5Q465 -14 397 -14ZM337 116Q370 116 395.0 134.5Q420 153 433.5 186.5Q447 220 447 265Q447 311 434.0 343.5Q421 376 397.5 394.0Q374 412 341 412Q319 412 300.5 404.0Q282 396 268.0 382.0Q254 368 244.0 350.5Q234 333 229.0 313.5Q224 294 224 275V254Q224 233 230.0 209.0Q236 185 249.5 164.0Q263 143 284.5 129.5Q306 116 337 116Z" fill="#ffffff"/></svg>